<?xml version="1.0" encoding="UTF-8" standalone="no"?>
<!DOCTYPE svg PUBLIC "-//W3C//DTD SVG 1.1//EN"
 "http://www.w3.org/Graphics/SVG/1.1/DTD/svg11.dtd">
<!-- Generated by graphviz version 10.0.1 (0)
 -->
<!-- Title: snakemake_dag Pages: 1 -->
<svg width="353pt" height="836pt"
 viewBox="0.00 0.00 353.25 836.00" xmlns="http://www.w3.org/2000/svg" xmlns:xlink="http://www.w3.org/1999/xlink">
<g id="graph0" class="graph" transform="scale(1 1) rotate(0) translate(4 832)">
<title>snakemake_dag</title>
<polygon fill="white" stroke="none" points="-4,4 -4,-832 349.25,-832 349.25,4 -4,4"/>
<!-- 0 -->
<g id="node1" class="node">
<title>0</title>
<path fill="none" stroke="#d89556" stroke-width="2" d="M224.75,-36C224.75,-36 194.75,-36 194.75,-36 188.75,-36 182.75,-30 182.75,-24 182.75,-24 182.75,-12 182.75,-12 182.75,-6 188.75,0 194.75,0 194.75,0 224.75,0 224.75,0 230.75,0 236.75,-6 236.75,-12 236.75,-12 236.75,-24 236.75,-24 236.75,-30 230.75,-36 224.75,-36"/>
<text text-anchor="middle" x="209.75" y="-15.62" font-family="sans" font-size="10.00">all</text>
</g>
<!-- 1 -->
<g id="node2" class="node">
<title>1</title>
<path fill="none" stroke="#d87556" stroke-width="2" d="M258.62,-108C258.62,-108 160.88,-108 160.88,-108 154.88,-108 148.88,-102 148.88,-96 148.88,-96 148.88,-84 148.88,-84 148.88,-78 154.88,-72 160.88,-72 160.88,-72 258.62,-72 258.62,-72 264.62,-72 270.62,-78 270.62,-84 270.62,-84 270.62,-96 270.62,-96 270.62,-102 264.62,-108 258.62,-108"/>
<text text-anchor="middle" x="209.75" y="-87.62" font-family="sans" font-size="10.00">get_absence_presence</text>
</g>
<!-- 1&#45;&gt;0 -->
<g id="edge1" class="edge">
<title>1&#45;&gt;0</title>
<path fill="none" stroke="grey" stroke-width="2" d="M209.75,-71.34C209.75,-64.75 209.75,-57.08 209.75,-49.67"/>
<polygon fill="grey" stroke="grey" stroke-width="2" points="213.25,-49.93 209.75,-39.93 206.25,-49.93 213.25,-49.93"/>
</g>
<!-- 2 -->
<g id="node3" class="node">
<title>2</title>
<path fill="none" stroke="#56d0d8" stroke-width="2" d="M223.38,-612C223.38,-612 112.12,-612 112.12,-612 106.12,-612 100.12,-606 100.12,-600 100.12,-600 100.12,-588 100.12,-588 100.12,-582 106.12,-576 112.12,-576 112.12,-576 223.38,-576 223.38,-576 229.38,-576 235.38,-582 235.38,-588 235.38,-588 235.38,-600 235.38,-600 235.38,-606 229.38,-612 223.38,-612"/>
<text text-anchor="middle" x="167.75" y="-591.62" font-family="sans" font-size="10.00">join_genomes_taxallnomy</text>
</g>
<!-- 2&#45;&gt;1 -->
<g id="edge4" class="edge">
<title>2&#45;&gt;1</title>
<path fill="none" stroke="grey" stroke-width="2" d="M168.58,-575.07C169.75,-548.14 171.75,-495.64 171.75,-451 171.75,-451 171.75,-451 171.75,-233 171.75,-193.16 185.88,-149.11 196.9,-120.8"/>
<polygon fill="grey" stroke="grey" stroke-width="2" points="200.05,-122.36 200.56,-111.77 193.56,-119.73 200.05,-122.36"/>
</g>
<!-- 3 -->
<g id="node4" class="node">
<title>3</title>
<path fill="none" stroke="#d8b456" stroke-width="2" d="M95.5,-684C95.5,-684 12,-684 12,-684 6,-684 0,-678 0,-672 0,-672 0,-660 0,-660 0,-654 6,-648 12,-648 12,-648 95.5,-648 95.5,-648 101.5,-648 107.5,-654 107.5,-660 107.5,-660 107.5,-672 107.5,-672 107.5,-678 101.5,-684 95.5,-684"/>
<text text-anchor="middle" x="53.75" y="-663.62" font-family="sans" font-size="10.00">taxallnomy_linname</text>
</g>
<!-- 3&#45;&gt;2 -->
<g id="edge6" class="edge">
<title>3&#45;&gt;2</title>
<path fill="none" stroke="grey" stroke-width="2" d="M82.81,-647.15C96.48,-638.76 112.99,-628.62 127.81,-619.52"/>
<polygon fill="grey" stroke="grey" stroke-width="2" points="129.47,-622.61 136.16,-614.4 125.81,-616.65 129.47,-622.61"/>
</g>
<!-- 4 -->
<g id="node5" class="node">
<title>4</title>
<path fill="none" stroke="#5692d8" stroke-width="2" d="M86.75,-756C86.75,-756 16.75,-756 16.75,-756 10.75,-756 4.75,-750 4.75,-744 4.75,-744 4.75,-732 4.75,-732 4.75,-726 10.75,-720 16.75,-720 16.75,-720 86.75,-720 86.75,-720 92.75,-720 98.75,-726 98.75,-732 98.75,-732 98.75,-744 98.75,-744 98.75,-750 92.75,-756 86.75,-756"/>
<text text-anchor="middle" x="51.75" y="-735.62" font-family="sans" font-size="10.00">taxallnomy_targz</text>
</g>
<!-- 4&#45;&gt;3 -->
<g id="edge7" class="edge">
<title>4&#45;&gt;3</title>
<path fill="none" stroke="grey" stroke-width="2" d="M52.25,-719.34C52.44,-712.75 52.66,-705.08 52.87,-697.67"/>
<polygon fill="grey" stroke="grey" stroke-width="2" points="56.36,-698.02 53.15,-687.93 49.37,-697.82 56.36,-698.02"/>
</g>
<!-- 5 -->
<g id="node6" class="node">
<title>5</title>
<path fill="none" stroke="#bed856" stroke-width="2" d="M196,-684C196,-684 139.5,-684 139.5,-684 133.5,-684 127.5,-678 127.5,-672 127.5,-672 127.5,-660 127.5,-660 127.5,-654 133.5,-648 139.5,-648 139.5,-648 196,-648 196,-648 202,-648 208,-654 208,-660 208,-660 208,-672 208,-672 208,-678 202,-684 196,-684"/>
<text text-anchor="middle" x="167.75" y="-663.62" font-family="sans" font-size="10.00">get_metadata</text>
</g>
<!-- 5&#45;&gt;2 -->
<g id="edge5" class="edge">
<title>5&#45;&gt;2</title>
<path fill="none" stroke="grey" stroke-width="2" d="M167.75,-647.34C167.75,-640.75 167.75,-633.08 167.75,-625.67"/>
<polygon fill="grey" stroke="grey" stroke-width="2" points="171.25,-625.93 167.75,-615.93 164.25,-625.93 171.25,-625.93"/>
</g>
<!-- 6 -->
<g id="node7" class="node">
<title>6</title>
<path fill="none" stroke="#88d856" stroke-width="2" d="M206.5,-756C206.5,-756 129,-756 129,-756 123,-756 117,-750 117,-744 117,-744 117,-732 117,-732 117,-726 123,-720 129,-720 129,-720 206.5,-720 206.5,-720 212.5,-720 218.5,-726 218.5,-732 218.5,-732 218.5,-744 218.5,-744 218.5,-750 212.5,-756 206.5,-756"/>
<text text-anchor="middle" x="167.75" y="-735.62" font-family="sans" font-size="10.00">get_metadata_raw</text>
</g>
<!-- 6&#45;&gt;5 -->
<g id="edge8" class="edge">
<title>6&#45;&gt;5</title>
<path fill="none" stroke="grey" stroke-width="2" d="M167.75,-719.34C167.75,-712.75 167.75,-705.08 167.75,-697.67"/>
<polygon fill="grey" stroke="grey" stroke-width="2" points="171.25,-697.93 167.75,-687.93 164.25,-697.93 171.25,-697.93"/>
</g>
<!-- 7 -->
<g id="node8" class="node">
<title>7</title>
<path fill="none" stroke="#56d863" stroke-width="2" d="M267.12,-828C267.12,-828 190.38,-828 190.38,-828 184.38,-828 178.38,-822 178.38,-816 178.38,-816 178.38,-804 178.38,-804 178.38,-798 184.38,-792 190.38,-792 190.38,-792 267.12,-792 267.12,-792 273.12,-792 279.12,-798 279.12,-804 279.12,-804 279.12,-816 279.12,-816 279.12,-822 273.12,-828 267.12,-828"/>
<text text-anchor="middle" x="228.75" y="-807.62" font-family="sans" font-size="10.00">get_genomes_raw</text>
</g>
<!-- 7&#45;&gt;6 -->
<g id="edge9" class="edge">
<title>7&#45;&gt;6</title>
<path fill="none" stroke="grey" stroke-width="2" d="M213.36,-791.34C206.83,-783.85 199.08,-774.95 191.83,-766.63"/>
<polygon fill="grey" stroke="grey" stroke-width="2" points="194.55,-764.42 185.34,-759.18 189.27,-769.02 194.55,-764.42"/>
</g>
<!-- 11 -->
<g id="node12" class="node">
<title>11</title>
<path fill="none" stroke="#56d8c1" stroke-width="2" d="M333.25,-756C333.25,-756 248.25,-756 248.25,-756 242.25,-756 236.25,-750 236.25,-744 236.25,-744 236.25,-732 236.25,-732 236.25,-726 242.25,-720 248.25,-720 248.25,-720 333.25,-720 333.25,-720 339.25,-720 345.25,-726 345.25,-732 345.25,-732 345.25,-744 345.25,-744 345.25,-750 339.25,-756 333.25,-756"/>
<text text-anchor="middle" x="290.75" y="-735.62" font-family="sans" font-size="10.00">download_genomes</text>
</g>
<!-- 7&#45;&gt;11 -->
<g id="edge13" class="edge">
<title>7&#45;&gt;11</title>
<path fill="none" stroke="grey" stroke-width="2" d="M244.4,-791.34C251.03,-783.85 258.91,-774.95 266.28,-766.63"/>
<polygon fill="grey" stroke="grey" stroke-width="2" points="268.88,-768.97 272.89,-759.17 263.64,-764.33 268.88,-768.97"/>
</g>
<!-- 8 -->
<g id="node9" class="node">
<title>8</title>
<path fill="none" stroke="#d85656" stroke-width="2" d="M316.5,-540C316.5,-540 257,-540 257,-540 251,-540 245,-534 245,-528 245,-528 245,-516 245,-516 245,-510 251,-504 257,-504 257,-504 316.5,-504 316.5,-504 322.5,-504 328.5,-510 328.5,-516 328.5,-516 328.5,-528 328.5,-528 328.5,-534 322.5,-540 316.5,-540"/>
<text text-anchor="middle" x="286.75" y="-519.62" font-family="sans" font-size="10.00">get_neighbors</text>
</g>
<!-- 8&#45;&gt;1 -->
<g id="edge3" class="edge">
<title>8&#45;&gt;1</title>
<path fill="none" stroke="grey" stroke-width="2" d="M269.66,-503.39C246.98,-478.07 209.75,-428.92 209.75,-379 209.75,-379 209.75,-379 209.75,-233 209.75,-194.65 209.75,-150.48 209.75,-121.72"/>
<polygon fill="grey" stroke="grey" stroke-width="2" points="213.25,-121.96 209.75,-111.96 206.25,-121.96 213.25,-121.96"/>
</g>
<!-- 16 -->
<g id="node17" class="node">
<title>16</title>
<path fill="none" stroke="#56d882" stroke-width="2" d="M301.75,-468C301.75,-468 271.75,-468 271.75,-468 265.75,-468 259.75,-462 259.75,-456 259.75,-456 259.75,-444 259.75,-444 259.75,-438 265.75,-432 271.75,-432 271.75,-432 301.75,-432 301.75,-432 307.75,-432 313.75,-438 313.75,-444 313.75,-444 313.75,-456 313.75,-456 313.75,-462 307.75,-468 301.75,-468"/>
<text text-anchor="middle" x="286.75" y="-447.62" font-family="sans" font-size="10.00">all_faa</text>
</g>
<!-- 8&#45;&gt;16 -->
<g id="edge18" class="edge">
<title>8&#45;&gt;16</title>
<path fill="none" stroke="grey" stroke-width="2" d="M286.75,-503.34C286.75,-496.75 286.75,-489.08 286.75,-481.67"/>
<polygon fill="grey" stroke="grey" stroke-width="2" points="290.25,-481.93 286.75,-471.93 283.25,-481.93 290.25,-481.93"/>
</g>
<!-- 9 -->
<g id="node10" class="node">
<title>9</title>
<path fill="none" stroke="#68d856" stroke-width="2" d="M302.75,-612C302.75,-612 272.75,-612 272.75,-612 266.75,-612 260.75,-606 260.75,-600 260.75,-600 260.75,-588 260.75,-588 260.75,-582 266.75,-576 272.75,-576 272.75,-576 302.75,-576 302.75,-576 308.75,-576 314.75,-582 314.75,-588 314.75,-588 314.75,-600 314.75,-600 314.75,-606 308.75,-612 302.75,-612"/>
<text text-anchor="middle" x="287.75" y="-591.62" font-family="sans" font-size="10.00">hmmer</text>
</g>
<!-- 9&#45;&gt;8 -->
<g id="edge10" class="edge">
<title>9&#45;&gt;8</title>
<path fill="none" stroke="grey" stroke-width="2" d="M287.5,-575.34C287.4,-568.75 287.29,-561.08 287.19,-553.67"/>
<polygon fill="grey" stroke="grey" stroke-width="2" points="290.69,-553.88 287.05,-543.93 283.69,-553.98 290.69,-553.88"/>
</g>
<!-- 10 -->
<g id="node11" class="node">
<title>10</title>
<path fill="none" stroke="#56b1d8" stroke-width="2" d="M317.25,-684C317.25,-684 262.25,-684 262.25,-684 256.25,-684 250.25,-678 250.25,-672 250.25,-672 250.25,-660 250.25,-660 250.25,-654 256.25,-648 262.25,-648 262.25,-648 317.25,-648 317.25,-648 323.25,-648 329.25,-654 329.25,-660 329.25,-660 329.25,-672 329.25,-672 329.25,-678 323.25,-684 317.25,-684"/>
<text text-anchor="middle" x="289.75" y="-663.62" font-family="sans" font-size="10.00">hmmer_input</text>
</g>
<!-- 10&#45;&gt;9 -->
<g id="edge11" class="edge">
<title>10&#45;&gt;9</title>
<path fill="none" stroke="grey" stroke-width="2" d="M289.25,-647.34C289.06,-640.75 288.84,-633.08 288.63,-625.67"/>
<polygon fill="grey" stroke="grey" stroke-width="2" points="292.13,-625.82 288.35,-615.93 285.14,-626.02 292.13,-625.82"/>
</g>
<!-- 11&#45;&gt;10 -->
<g id="edge12" class="edge">
<title>11&#45;&gt;10</title>
<path fill="none" stroke="grey" stroke-width="2" d="M290.5,-719.34C290.4,-712.75 290.29,-705.08 290.19,-697.67"/>
<polygon fill="grey" stroke="grey" stroke-width="2" points="293.69,-697.88 290.05,-687.93 286.69,-697.98 293.69,-697.88"/>
</g>
<!-- 12 -->
<g id="node13" class="node">
<title>12</title>
<path fill="none" stroke="#56d8a2" stroke-width="2" d="M294.88,-180C294.88,-180 258.62,-180 258.62,-180 252.62,-180 246.62,-174 246.62,-168 246.62,-168 246.62,-156 246.62,-156 246.62,-150 252.62,-144 258.62,-144 258.62,-144 294.88,-144 294.88,-144 300.88,-144 306.88,-150 306.88,-156 306.88,-156 306.88,-168 306.88,-168 306.88,-174 300.88,-180 294.88,-180"/>
<text text-anchor="middle" x="276.75" y="-159.62" font-family="sans" font-size="10.00">get_archs</text>
</g>
<!-- 12&#45;&gt;1 -->
<g id="edge2" class="edge">
<title>12&#45;&gt;1</title>
<path fill="none" stroke="grey" stroke-width="2" d="M259.84,-143.34C252.52,-135.69 243.78,-126.56 235.67,-118.08"/>
<polygon fill="grey" stroke="grey" stroke-width="2" points="238.42,-115.89 228.98,-111.09 233.36,-120.73 238.42,-115.89"/>
</g>
<!-- 13 -->
<g id="node14" class="node">
<title>13</title>
<path fill="none" stroke="#5673d8" stroke-width="2" d="M324,-252C324,-252 249.5,-252 249.5,-252 243.5,-252 237.5,-246 237.5,-240 237.5,-240 237.5,-228 237.5,-228 237.5,-222 243.5,-216 249.5,-216 249.5,-216 324,-216 324,-216 330,-216 336,-222 336,-228 336,-228 336,-240 336,-240 336,-246 330,-252 324,-252"/>
<text text-anchor="middle" x="286.75" y="-231.62" font-family="sans" font-size="10.00">add_header_iscan</text>
</g>
<!-- 13&#45;&gt;12 -->
<g id="edge14" class="edge">
<title>13&#45;&gt;12</title>
<path fill="none" stroke="grey" stroke-width="2" d="M284.23,-215.34C283.29,-208.75 282.19,-201.08 281.13,-193.67"/>
<polygon fill="grey" stroke="grey" stroke-width="2" points="284.61,-193.3 279.74,-183.9 277.68,-194.29 284.61,-193.3"/>
</g>
<!-- 14 -->
<g id="node15" class="node">
<title>14</title>
<path fill="none" stroke="#d8d356" stroke-width="2" d="M312,-324C312,-324 261.5,-324 261.5,-324 255.5,-324 249.5,-318 249.5,-312 249.5,-312 249.5,-300 249.5,-300 249.5,-294 255.5,-288 261.5,-288 261.5,-288 312,-288 312,-288 318,-288 324,-294 324,-300 324,-300 324,-312 324,-312 324,-318 318,-324 312,-324"/>
<text text-anchor="middle" x="286.75" y="-303.62" font-family="sans" font-size="10.00">interproscan</text>
</g>
<!-- 14&#45;&gt;13 -->
<g id="edge15" class="edge">
<title>14&#45;&gt;13</title>
<path fill="none" stroke="grey" stroke-width="2" d="M286.75,-287.34C286.75,-280.75 286.75,-273.08 286.75,-265.67"/>
<polygon fill="grey" stroke="grey" stroke-width="2" points="290.25,-265.93 286.75,-255.93 283.25,-265.93 290.25,-265.93"/>
</g>
<!-- 15 -->
<g id="node16" class="node">
<title>15</title>
<path fill="none" stroke="#9fd856" stroke-width="2" d="M301.75,-396C301.75,-396 271.75,-396 271.75,-396 265.75,-396 259.75,-390 259.75,-384 259.75,-384 259.75,-372 259.75,-372 259.75,-366 265.75,-360 271.75,-360 271.75,-360 301.75,-360 301.75,-360 307.75,-360 313.75,-366 313.75,-372 313.75,-372 313.75,-384 313.75,-384 313.75,-390 307.75,-396 301.75,-396"/>
<text text-anchor="middle" x="286.75" y="-375.62" font-family="sans" font-size="10.00">split_faa</text>
</g>
<!-- 15&#45;&gt;14 -->
<g id="edge16" class="edge">
<title>15&#45;&gt;14</title>
<path fill="none" stroke="grey" stroke-width="2" d="M286.75,-359.34C286.75,-352.75 286.75,-345.08 286.75,-337.67"/>
<polygon fill="grey" stroke="grey" stroke-width="2" points="290.25,-337.93 286.75,-327.93 283.25,-337.93 290.25,-337.93"/>
</g>
<!-- 16&#45;&gt;15 -->
<g id="edge17" class="edge">
<title>16&#45;&gt;15</title>
<path fill="none" stroke="grey" stroke-width="2" d="M286.75,-431.34C286.75,-424.75 286.75,-417.08 286.75,-409.67"/>
<polygon fill="grey" stroke="grey" stroke-width="2" points="290.25,-409.93 286.75,-399.93 283.25,-409.93 290.25,-409.93"/>
</g>
</g>
</svg>
