<?xml version="1.0" encoding="UTF-8" standalone="no"?>
<!DOCTYPE svg PUBLIC "-//W3C//DTD SVG 1.1//EN"
 "http://www.w3.org/Graphics/SVG/1.1/DTD/svg11.dtd">
<!-- Generated by graphviz version 12.0.0 (20240803.0821)
 -->
<!-- Title: snakemake_dag Pages: 1 -->
<svg width="756pt" height="2146pt"
 viewBox="0.00 0.00 756.00 2146.25" xmlns="http://www.w3.org/2000/svg" xmlns:xlink="http://www.w3.org/1999/xlink">
<g id="graph0" class="graph" transform="scale(1 1) rotate(0) translate(4 2142.25)">
<title>snakemake_dag</title>
<polygon fill="white" stroke="none" points="-4,4 -4,-2142.25 752,-2142.25 752,4 -4,4"/>
<!-- 0 -->
<g id="node1" class="node">
<title>0</title>
<text text-anchor="start" x="431.5" y="-85.4" font-family="sans" font-weight="bold" font-size="18.00">all</text>
<text text-anchor="start" x="340" y="-56.7" font-family="sans" font-size="10.00"> </text>
<text text-anchor="start" x="342.25" y="-56.7" font-family="sans" font-weight="bold" font-size="14.00">↪ input</text>
<text text-anchor="start" x="395.5" y="-56.7" font-family="sans" font-size="10.00"> </text>
<text text-anchor="start" x="340" y="-33" font-family="monospace" font-size="10.00">tests/results/absence_presence.tsv</text>
<text text-anchor="start" x="539.5" y="-11.75" font-family="sans" font-size="10.00"> &#160;</text>
<polygon fill="#d97557" stroke="#d97557" points="334,-73 334,-73 551,-73 551,-73 334,-73"/>
<polygon fill="#d97557" stroke="#d97557" points="334,-25.25 334,-25.25 551,-25.25 551,-25.25 334,-25.25"/>
<polygon fill="none" stroke="#d97557" stroke-width="2" points="334,-1 334,-107.5 550,-107.5 550,-1 334,-1"/>
</g>
<!-- 1 -->
<g id="node2" class="node">
<title>1</title>
<text text-anchor="start" x="343.38" y="-320.15" font-family="sans" font-weight="bold" font-size="18.00">get_absence_presence</text>
<text text-anchor="start" x="340" y="-291.45" font-family="sans" font-size="10.00"> </text>
<text text-anchor="start" x="342.25" y="-291.45" font-family="sans" font-weight="bold" font-size="14.00">↪ input</text>
<text text-anchor="start" x="395.5" y="-291.45" font-family="sans" font-size="10.00"> </text>
<text text-anchor="start" x="340" y="-267.75" font-family="monospace" font-size="10.00">tests/results/archs.tsv</text>
<text text-anchor="start" x="340" y="-246.5" font-family="monospace" font-size="10.00">tests/results/genomes_ranks.tsv</text>
<text text-anchor="start" x="340" y="-225.25" font-family="monospace" font-size="10.00">tests/results/neighbors.tsv</text>
<text text-anchor="start" x="475.75" y="-201.2" font-family="sans" font-size="10.00"> </text>
<text text-anchor="start" x="478" y="-201.2" font-family="sans" font-weight="bold" font-size="14.00">output →</text>
<text text-anchor="start" x="541.75" y="-201.2" font-family="sans" font-size="10.00"> </text>
<text text-anchor="start" x="340" y="-177.5" font-family="monospace" font-size="10.00">tests/results/TGPD.tsv</text>
<text text-anchor="start" x="340" y="-156.25" font-family="monospace" font-size="10.00">tests/results/absence_presence.tsv</text>
<polygon fill="#d9d157" stroke="#d9d157" points="334,-307.75 334,-307.75 551,-307.75 551,-307.75 334,-307.75"/>
<polygon fill="#d9d157" stroke="#d9d157" points="334,-217.5 334,-217.5 551,-217.5 551,-217.5 334,-217.5"/>
<polygon fill="none" stroke="#d9d157" stroke-width="2" points="334,-145.5 334,-342.25 550,-342.25 550,-145.5 334,-145.5"/>
</g>
<!-- 1&#45;&gt;0 -->
<g id="edge1" class="edge">
<title>1&#45;&gt;0</title>
<path fill="none" stroke="grey" stroke-width="2" d="M442,-144.67C442,-136.7 442,-128.77 442,-121.12"/>
<polygon fill="grey" stroke="grey" stroke-width="2" points="445.5,-121.15 442,-111.15 438.5,-121.15 445.5,-121.15"/>
</g>
<!-- 2 -->
<g id="node3" class="node">
<title>2</title>
<text text-anchor="start" x="262.5" y="-1580.9" font-family="sans" font-weight="bold" font-size="18.00">join_genomes_taxallnomy</text>
<text text-anchor="start" x="262.5" y="-1552.2" font-family="sans" font-size="10.00"> </text>
<text text-anchor="start" x="264.75" y="-1552.2" font-family="sans" font-weight="bold" font-size="14.00">↪ input</text>
<text text-anchor="start" x="318" y="-1552.2" font-family="sans" font-size="10.00"> </text>
<text text-anchor="start" x="262.5" y="-1528.5" font-family="monospace" font-size="10.00">tests/results/genomes_metadata.tsv</text>
<text text-anchor="start" x="262.5" y="-1507.25" font-family="monospace" font-size="10.00">tests/results/taxallnomy_lin_name.tsv</text>
<text text-anchor="start" x="425.25" y="-1483.2" font-family="sans" font-size="10.00"> </text>
<text text-anchor="start" x="427.5" y="-1483.2" font-family="sans" font-weight="bold" font-size="14.00">output →</text>
<text text-anchor="start" x="491.25" y="-1483.2" font-family="sans" font-size="10.00"> </text>
<text text-anchor="start" x="262.5" y="-1459.5" font-family="monospace" font-size="10.00">tests/results/genomes_ranks.tsv</text>
<polygon fill="#57d1d9" stroke="#57d1d9" points="256.5,-1568.5 256.5,-1568.5 500.5,-1568.5 500.5,-1568.5 256.5,-1568.5"/>
<polygon fill="#57d1d9" stroke="#57d1d9" points="256.5,-1499.5 256.5,-1499.5 500.5,-1499.5 500.5,-1499.5 256.5,-1499.5"/>
<polygon fill="none" stroke="#57d1d9" stroke-width="2" points="256.5,-1448.75 256.5,-1603 499.5,-1603 499.5,-1448.75 256.5,-1448.75"/>
</g>
<!-- 2&#45;&gt;1 -->
<g id="edge4" class="edge">
<title>2&#45;&gt;1</title>
<path fill="none" stroke="grey" stroke-width="2" d="M383.18,-1447.97C387.52,-1376.95 393,-1268.54 393,-1174.25 393,-1174.25 393,-1174.25 393,-659.25 393,-555.83 408.24,-438.88 421.72,-355.67"/>
<polygon fill="grey" stroke="grey" stroke-width="2" points="425.17,-356.29 423.33,-345.85 418.26,-355.15 425.17,-356.29"/>
</g>
<!-- 3 -->
<g id="node4" class="node">
<title>3</title>
<text text-anchor="start" x="27.62" y="-1751.9" font-family="sans" font-weight="bold" font-size="18.00">taxallnomy_linname</text>
<text text-anchor="start" x="7" y="-1723.2" font-family="sans" font-size="10.00"> </text>
<text text-anchor="start" x="9.25" y="-1723.2" font-family="sans" font-weight="bold" font-size="14.00">↪ input</text>
<text text-anchor="start" x="62.5" y="-1723.2" font-family="sans" font-size="10.00"> </text>
<text text-anchor="start" x="7" y="-1699.5" font-family="monospace" font-size="10.00">tests/results/taxallnomy.tar.gz</text>
<text text-anchor="start" x="160.75" y="-1675.45" font-family="sans" font-size="10.00"> </text>
<text text-anchor="start" x="163" y="-1675.45" font-family="sans" font-weight="bold" font-size="14.00">output →</text>
<text text-anchor="start" x="226.75" y="-1675.45" font-family="sans" font-size="10.00"> </text>
<text text-anchor="start" x="7" y="-1651.75" font-family="monospace" font-size="10.00">tests/results/taxallnomy_lin_name.tsv</text>
<polygon fill="#5794d9" stroke="#5794d9" points="1,-1739.5 1,-1739.5 236,-1739.5 236,-1739.5 1,-1739.5"/>
<polygon fill="#5794d9" stroke="#5794d9" points="1,-1691.75 1,-1691.75 236,-1691.75 236,-1691.75 1,-1691.75"/>
<polygon fill="none" stroke="#5794d9" stroke-width="2" points="1,-1641 1,-1774 235,-1774 235,-1641 1,-1641"/>
</g>
<!-- 3&#45;&gt;2 -->
<g id="edge6" class="edge">
<title>3&#45;&gt;2</title>
<path fill="none" stroke="grey" stroke-width="2" d="M214.08,-1640.12C227.68,-1630.73 241.81,-1620.96 255.83,-1611.28"/>
<polygon fill="grey" stroke="grey" stroke-width="2" points="257.78,-1614.19 264.02,-1605.62 253.8,-1608.43 257.78,-1614.19"/>
</g>
<!-- 4 -->
<g id="node5" class="node">
<title>4</title>
<text text-anchor="start" x="41.12" y="-1920.28" font-family="sans" font-weight="bold" font-size="18.00">taxallnomy_targz</text>
<text text-anchor="start" x="25" y="-1894.38" font-family="sans" font-size="10.00"> &#160;</text>
<text text-anchor="start" x="142.75" y="-1870.33" font-family="sans" font-size="10.00"> </text>
<text text-anchor="start" x="145" y="-1870.33" font-family="sans" font-weight="bold" font-size="14.00">output →</text>
<text text-anchor="start" x="208.75" y="-1870.33" font-family="sans" font-size="10.00"> </text>
<text text-anchor="start" x="25" y="-1846.62" font-family="monospace" font-size="10.00">tests/results/taxallnomy.tar.gz</text>
<polygon fill="#5775d9" stroke="#5775d9" points="19,-1907.88 19,-1907.88 218,-1907.88 218,-1907.88 19,-1907.88"/>
<polygon fill="#5775d9" stroke="#5775d9" points="19,-1886.62 19,-1886.62 218,-1886.62 218,-1886.62 19,-1886.62"/>
<polygon fill="none" stroke="#5775d9" stroke-width="2" points="19,-1835.88 19,-1942.38 217,-1942.38 217,-1835.88 19,-1835.88"/>
</g>
<!-- 4&#45;&gt;3 -->
<g id="edge7" class="edge">
<title>4&#45;&gt;3</title>
<path fill="none" stroke="grey" stroke-width="2" d="M118,-1835.2C118,-1820.26 118,-1803.67 118,-1787.54"/>
<polygon fill="grey" stroke="grey" stroke-width="2" points="121.5,-1787.78 118,-1777.78 114.5,-1787.78 121.5,-1787.78"/>
</g>
<!-- 5 -->
<g id="node6" class="node">
<title>5</title>
<text text-anchor="start" x="316.88" y="-1751.9" font-family="sans" font-weight="bold" font-size="18.00">get_metadata</text>
<text text-anchor="start" x="261" y="-1723.2" font-family="sans" font-size="10.00"> </text>
<text text-anchor="start" x="263.25" y="-1723.2" font-family="sans" font-weight="bold" font-size="14.00">↪ input</text>
<text text-anchor="start" x="316.5" y="-1723.2" font-family="sans" font-size="10.00"> </text>
<text text-anchor="start" x="261" y="-1699.5" font-family="monospace" font-size="10.00">tests/results/.genomes_metadata_raw.tsv</text>
<text text-anchor="start" x="426.75" y="-1675.45" font-family="sans" font-size="10.00"> </text>
<text text-anchor="start" x="429" y="-1675.45" font-family="sans" font-weight="bold" font-size="14.00">output →</text>
<text text-anchor="start" x="492.75" y="-1675.45" font-family="sans" font-size="10.00"> </text>
<text text-anchor="start" x="261" y="-1651.75" font-family="monospace" font-size="10.00">tests/results/genomes_metadata.tsv</text>
<polygon fill="#85d957" stroke="#85d957" points="255,-1739.5 255,-1739.5 502,-1739.5 502,-1739.5 255,-1739.5"/>
<polygon fill="#85d957" stroke="#85d957" points="255,-1691.75 255,-1691.75 502,-1691.75 502,-1691.75 255,-1691.75"/>
<polygon fill="none" stroke="#85d957" stroke-width="2" points="255,-1641 255,-1774 501,-1774 501,-1641 255,-1641"/>
</g>
<!-- 5&#45;&gt;2 -->
<g id="edge5" class="edge">
<title>5&#45;&gt;2</title>
<path fill="none" stroke="grey" stroke-width="2" d="M378,-1640.12C378,-1632.48 378,-1624.59 378,-1616.7"/>
<polygon fill="grey" stroke="grey" stroke-width="2" points="381.5,-1616.93 378,-1606.93 374.5,-1616.93 381.5,-1616.93"/>
</g>
<!-- 6 -->
<g id="node7" class="node">
<title>6</title>
<text text-anchor="start" x="294.25" y="-1933.53" font-family="sans" font-weight="bold" font-size="18.00">get_metadata_raw</text>
<text text-anchor="start" x="259" y="-1904.83" font-family="sans" font-size="10.00"> </text>
<text text-anchor="start" x="261.25" y="-1904.83" font-family="sans" font-weight="bold" font-size="14.00">↪ input</text>
<text text-anchor="start" x="314.5" y="-1904.83" font-family="sans" font-size="10.00"> </text>
<text text-anchor="start" x="259" y="-1881.12" font-family="monospace" font-size="10.00">tests/results/.genomes_raw.tsv</text>
<text text-anchor="start" x="424.75" y="-1857.08" font-family="sans" font-size="10.00"> </text>
<text text-anchor="start" x="427" y="-1857.08" font-family="sans" font-weight="bold" font-size="14.00">output →</text>
<text text-anchor="start" x="490.75" y="-1857.08" font-family="sans" font-size="10.00"> </text>
<text text-anchor="start" x="259" y="-1833.38" font-family="monospace" font-size="10.00">tests/results/.genomes_metadata_raw.tsv</text>
<polygon fill="#66d957" stroke="#66d957" points="253,-1921.12 253,-1921.12 500,-1921.12 500,-1921.12 253,-1921.12"/>
<polygon fill="#66d957" stroke="#66d957" points="253,-1873.38 253,-1873.38 500,-1873.38 500,-1873.38 253,-1873.38"/>
<polygon fill="none" stroke="#66d957" stroke-width="2" points="253,-1822.62 253,-1955.62 499,-1955.62 499,-1822.62 253,-1822.62"/>
</g>
<!-- 6&#45;&gt;5 -->
<g id="edge8" class="edge">
<title>6&#45;&gt;5</title>
<path fill="none" stroke="grey" stroke-width="2" d="M376.74,-1821.75C376.86,-1810.64 376.99,-1799.02 377.12,-1787.62"/>
<polygon fill="grey" stroke="grey" stroke-width="2" points="380.62,-1787.97 377.23,-1777.93 373.62,-1787.89 380.62,-1787.97"/>
</g>
<!-- 7 -->
<g id="node8" class="node">
<title>7</title>
<text text-anchor="start" x="423.12" y="-2115.15" font-family="sans" font-weight="bold" font-size="18.00">get_genomes_raw</text>
<text text-anchor="start" x="413" y="-2086.45" font-family="sans" font-size="10.00"> </text>
<text text-anchor="start" x="415.25" y="-2086.45" font-family="sans" font-weight="bold" font-size="14.00">↪ input</text>
<text text-anchor="start" x="468.5" y="-2086.45" font-family="sans" font-size="10.00"> </text>
<text text-anchor="start" x="413" y="-2062.75" font-family="monospace" font-size="10.00">tests/genomes.txt</text>
<text text-anchor="start" x="524.75" y="-2038.7" font-family="sans" font-size="10.00"> </text>
<text text-anchor="start" x="527" y="-2038.7" font-family="sans" font-weight="bold" font-size="14.00">output →</text>
<text text-anchor="start" x="590.75" y="-2038.7" font-family="sans" font-size="10.00"> </text>
<text text-anchor="start" x="413" y="-2015" font-family="monospace" font-size="10.00">tests/results/.genomes_raw.tsv</text>
<polygon fill="#a3d957" stroke="#a3d957" points="407,-2102.75 407,-2102.75 600,-2102.75 600,-2102.75 407,-2102.75"/>
<polygon fill="#a3d957" stroke="#a3d957" points="407,-2055 407,-2055 600,-2055 600,-2055 407,-2055"/>
<polygon fill="none" stroke="#a3d957" stroke-width="2" points="407,-2004.25 407,-2137.25 599,-2137.25 599,-2004.25 407,-2004.25"/>
</g>
<!-- 7&#45;&gt;6 -->
<g id="edge9" class="edge">
<title>7&#45;&gt;6</title>
<path fill="none" stroke="grey" stroke-width="2" d="M456.07,-2003.37C447.71,-1991.55 438.94,-1979.14 430.39,-1967.05"/>
<polygon fill="grey" stroke="grey" stroke-width="2" points="433.33,-1965.14 424.7,-1959 427.61,-1969.18 433.33,-1965.14"/>
</g>
<!-- 11 -->
<g id="node12" class="node">
<title>11</title>
<text text-anchor="start" x="541.12" y="-1944.15" font-family="sans" font-weight="bold" font-size="18.00">download_genomes</text>
<text text-anchor="start" x="525" y="-1915.45" font-family="sans" font-size="10.00"> </text>
<text text-anchor="start" x="527.25" y="-1915.45" font-family="sans" font-weight="bold" font-size="14.00">↪ input</text>
<text text-anchor="start" x="580.5" y="-1915.45" font-family="sans" font-size="10.00"> </text>
<text text-anchor="start" x="525" y="-1891.75" font-family="monospace" font-size="10.00">tests/results/.genomes_raw.tsv</text>
<text text-anchor="start" x="666.75" y="-1867.7" font-family="sans" font-size="10.00"> </text>
<text text-anchor="start" x="669" y="-1867.7" font-family="sans" font-weight="bold" font-size="14.00">output →</text>
<text text-anchor="start" x="732.75" y="-1867.7" font-family="sans" font-size="10.00"> </text>
<text text-anchor="start" x="525" y="-1844" font-family="monospace" font-size="10.00">tests/results/genomes/genomes.tsv</text>
<text text-anchor="start" x="525" y="-1822.75" font-family="monospace" font-size="10.00">tests/results/genomes/not_found.tsv</text>
<polygon fill="#d9b257" stroke="#d9b257" points="519,-1931.75 519,-1931.75 742,-1931.75 742,-1931.75 519,-1931.75"/>
<polygon fill="#d9b257" stroke="#d9b257" points="519,-1884 519,-1884 742,-1884 742,-1884 519,-1884"/>
<polygon fill="none" stroke="#d9b257" stroke-width="2" points="519,-1812 519,-1966.25 741,-1966.25 741,-1812 519,-1812"/>
</g>
<!-- 7&#45;&gt;11 -->
<g id="edge13" class="edge">
<title>7&#45;&gt;11</title>
<path fill="none" stroke="grey" stroke-width="2" d="M549.93,-2003.37C555.86,-1994.99 561.99,-1986.31 568.11,-1977.67"/>
<polygon fill="grey" stroke="grey" stroke-width="2" points="570.88,-1979.81 573.79,-1969.62 565.16,-1975.77 570.88,-1979.81"/>
</g>
<!-- 8 -->
<g id="node9" class="node">
<title>8</title>
<text text-anchor="start" x="545.25" y="-1388.65" font-family="sans" font-weight="bold" font-size="18.00">get_neighbors</text>
<text text-anchor="start" x="528" y="-1359.95" font-family="sans" font-size="10.00"> </text>
<text text-anchor="start" x="530.25" y="-1359.95" font-family="sans" font-weight="bold" font-size="14.00">↪ input</text>
<text text-anchor="start" x="583.5" y="-1359.95" font-family="sans" font-size="10.00"> </text>
<text text-anchor="start" x="528" y="-1336.25" font-family="monospace" font-size="10.00">tests/results/hmmer.tsv</text>
<text text-anchor="start" x="621.75" y="-1312.2" font-family="sans" font-size="10.00"> </text>
<text text-anchor="start" x="624" y="-1312.2" font-family="sans" font-weight="bold" font-size="14.00">output →</text>
<text text-anchor="start" x="687.75" y="-1312.2" font-family="sans" font-size="10.00"> </text>
<text text-anchor="start" x="528" y="-1288.5" font-family="monospace" font-size="10.00">tests/results/neighbors.tsv</text>
<polygon fill="#57d966" stroke="#57d966" points="522,-1376.25 522,-1376.25 697,-1376.25 697,-1376.25 522,-1376.25"/>
<polygon fill="#57d966" stroke="#57d966" points="522,-1328.5 522,-1328.5 697,-1328.5 697,-1328.5 522,-1328.5"/>
<polygon fill="none" stroke="#57d966" stroke-width="2" points="522,-1277.75 522,-1410.75 696,-1410.75 696,-1277.75 522,-1277.75"/>
</g>
<!-- 8&#45;&gt;1 -->
<g id="edge3" class="edge">
<title>8&#45;&gt;1</title>
<path fill="none" stroke="grey" stroke-width="2" d="M537.93,-1276.81C528.28,-1265.46 519.23,-1253.27 512,-1240.75 456.95,-1145.46 442,-1113.29 442,-1003.25 442,-1003.25 442,-1003.25 442,-659.25 442,-556.37 442,-439.13 442,-355.67"/>
<polygon fill="grey" stroke="grey" stroke-width="2" points="445.5,-355.86 442,-345.86 438.5,-355.86 445.5,-355.86"/>
</g>
<!-- 16 -->
<g id="node17" class="node">
<title>16</title>
<text text-anchor="start" x="580.88" y="-1217.65" font-family="sans" font-weight="bold" font-size="18.00">all_faa</text>
<text text-anchor="start" x="528" y="-1188.95" font-family="sans" font-size="10.00"> </text>
<text text-anchor="start" x="530.25" y="-1188.95" font-family="sans" font-weight="bold" font-size="14.00">↪ input</text>
<text text-anchor="start" x="583.5" y="-1188.95" font-family="sans" font-size="10.00"> </text>
<text text-anchor="start" x="528" y="-1165.25" font-family="monospace" font-size="10.00">tests/results/neighbors.tsv</text>
<text text-anchor="start" x="621.75" y="-1141.2" font-family="sans" font-size="10.00"> </text>
<text text-anchor="start" x="624" y="-1141.2" font-family="sans" font-weight="bold" font-size="14.00">output →</text>
<text text-anchor="start" x="687.75" y="-1141.2" font-family="sans" font-size="10.00"> </text>
<text text-anchor="start" x="528" y="-1117.5" font-family="monospace" font-size="10.00">tests/results/all.faa</text>
<polygon fill="#d99457" stroke="#d99457" points="522,-1205.25 522,-1205.25 697,-1205.25 697,-1205.25 522,-1205.25"/>
<polygon fill="#d99457" stroke="#d99457" points="522,-1157.5 522,-1157.5 697,-1157.5 697,-1157.5 522,-1157.5"/>
<polygon fill="none" stroke="#d99457" stroke-width="2" points="522,-1106.75 522,-1239.75 696,-1239.75 696,-1106.75 522,-1106.75"/>
</g>
<!-- 8&#45;&gt;16 -->
<g id="edge18" class="edge">
<title>8&#45;&gt;16</title>
<path fill="none" stroke="grey" stroke-width="2" d="M609,-1276.94C609,-1269.3 609,-1261.45 609,-1253.66"/>
<polygon fill="grey" stroke="grey" stroke-width="2" points="612.5,-1253.67 609,-1243.67 605.5,-1253.67 612.5,-1253.67"/>
</g>
<!-- 9 -->
<g id="node10" class="node">
<title>9</title>
<text text-anchor="start" x="588.38" y="-1570.28" font-family="sans" font-weight="bold" font-size="18.00">hmmer</text>
<text text-anchor="start" x="534" y="-1541.58" font-family="sans" font-size="10.00"> </text>
<text text-anchor="start" x="536.25" y="-1541.58" font-family="sans" font-weight="bold" font-size="14.00">↪ input</text>
<text text-anchor="start" x="589.5" y="-1541.58" font-family="sans" font-size="10.00"> </text>
<text text-anchor="start" x="534" y="-1517.88" font-family="monospace" font-size="10.00">tests/results/.input_faas.txt</text>
<text text-anchor="start" x="639.75" y="-1493.83" font-family="sans" font-size="10.00"> </text>
<text text-anchor="start" x="642" y="-1493.83" font-family="sans" font-weight="bold" font-size="14.00">output →</text>
<text text-anchor="start" x="705.75" y="-1493.83" font-family="sans" font-size="10.00"> </text>
<text text-anchor="start" x="534" y="-1470.12" font-family="monospace" font-size="10.00">tests/results/hmmer.tsv</text>
<polygon fill="#57d985" stroke="#57d985" points="528,-1557.88 528,-1557.88 715,-1557.88 715,-1557.88 528,-1557.88"/>
<polygon fill="#57d985" stroke="#57d985" points="528,-1510.12 528,-1510.12 715,-1510.12 715,-1510.12 528,-1510.12"/>
<polygon fill="none" stroke="#57d985" stroke-width="2" points="528,-1459.38 528,-1592.38 714,-1592.38 714,-1459.38 528,-1459.38"/>
</g>
<!-- 9&#45;&gt;8 -->
<g id="edge10" class="edge">
<title>9&#45;&gt;8</title>
<path fill="none" stroke="grey" stroke-width="2" d="M616.57,-1458.5C615.82,-1447.39 615.05,-1435.77 614.29,-1424.37"/>
<polygon fill="grey" stroke="grey" stroke-width="2" points="617.8,-1424.42 613.64,-1414.67 610.81,-1424.88 617.8,-1424.42"/>
</g>
<!-- 10 -->
<g id="node11" class="node">
<title>10</title>
<text text-anchor="start" x="568.62" y="-1751.9" font-family="sans" font-weight="bold" font-size="18.00">hmmer_input</text>
<text text-anchor="start" x="530" y="-1723.2" font-family="sans" font-size="10.00"> </text>
<text text-anchor="start" x="532.25" y="-1723.2" font-family="sans" font-weight="bold" font-size="14.00">↪ input</text>
<text text-anchor="start" x="585.5" y="-1723.2" font-family="sans" font-size="10.00"> </text>
<text text-anchor="start" x="530" y="-1699.5" font-family="monospace" font-size="10.00">tests/results/genomes/genomes.tsv</text>
<text text-anchor="start" x="659.75" y="-1675.45" font-family="sans" font-size="10.00"> </text>
<text text-anchor="start" x="662" y="-1675.45" font-family="sans" font-weight="bold" font-size="14.00">output →</text>
<text text-anchor="start" x="725.75" y="-1675.45" font-family="sans" font-size="10.00"> </text>
<text text-anchor="start" x="530" y="-1651.75" font-family="monospace" font-size="10.00">tests/results/.input_faas.txt</text>
<polygon fill="#57d9a3" stroke="#57d9a3" points="524,-1739.5 524,-1739.5 735,-1739.5 735,-1739.5 524,-1739.5"/>
<polygon fill="#57d9a3" stroke="#57d9a3" points="524,-1691.75 524,-1691.75 735,-1691.75 735,-1691.75 524,-1691.75"/>
<polygon fill="none" stroke="#57d9a3" stroke-width="2" points="524,-1641 524,-1774 734,-1774 734,-1641 524,-1641"/>
</g>
<!-- 10&#45;&gt;9 -->
<g id="edge11" class="edge">
<title>10&#45;&gt;9</title>
<path fill="none" stroke="grey" stroke-width="2" d="M626.04,-1640.12C625.55,-1629.02 625.03,-1617.39 624.52,-1606"/>
<polygon fill="grey" stroke="grey" stroke-width="2" points="628.03,-1606.14 624.09,-1596.3 621.04,-1606.45 628.03,-1606.14"/>
</g>
<!-- 11&#45;&gt;10 -->
<g id="edge12" class="edge">
<title>11&#45;&gt;10</title>
<path fill="none" stroke="grey" stroke-width="2" d="M629.57,-1811.17C629.53,-1803.42 629.48,-1795.54 629.44,-1787.77"/>
<polygon fill="grey" stroke="grey" stroke-width="2" points="632.94,-1787.84 629.39,-1777.86 625.94,-1787.88 632.94,-1787.84"/>
</g>
<!-- 12 -->
<g id="node13" class="node">
<title>12</title>
<text text-anchor="start" x="545.62" y="-533.65" font-family="sans" font-weight="bold" font-size="18.00">get_archs</text>
<text text-anchor="start" x="498" y="-504.95" font-family="sans" font-size="10.00"> </text>
<text text-anchor="start" x="500.25" y="-504.95" font-family="sans" font-weight="bold" font-size="14.00">↪ input</text>
<text text-anchor="start" x="553.5" y="-504.95" font-family="sans" font-size="10.00"> </text>
<text text-anchor="start" x="498" y="-481.25" font-family="monospace" font-size="10.00">tests/results/iscan.tsv</text>
<text text-anchor="start" x="609.75" y="-457.2" font-family="sans" font-size="10.00"> </text>
<text text-anchor="start" x="612" y="-457.2" font-family="sans" font-weight="bold" font-size="14.00">output →</text>
<text text-anchor="start" x="675.75" y="-457.2" font-family="sans" font-size="10.00"> </text>
<text text-anchor="start" x="498" y="-433.5" font-family="monospace" font-size="10.00">tests/results/archs.tsv</text>
<text text-anchor="start" x="498" y="-412.25" font-family="monospace" font-size="10.00">tests/results/archs_code.tsv</text>
<text text-anchor="start" x="498" y="-391" font-family="monospace" font-size="10.00">tests/results/archs_pidrow.tsv</text>
<polygon fill="#c2d957" stroke="#c2d957" points="492,-521.25 492,-521.25 685,-521.25 685,-521.25 492,-521.25"/>
<polygon fill="#c2d957" stroke="#c2d957" points="492,-473.5 492,-473.5 685,-473.5 685,-473.5 492,-473.5"/>
<polygon fill="none" stroke="#c2d957" stroke-width="2" points="492,-380.25 492,-555.75 684,-555.75 684,-380.25 492,-380.25"/>
</g>
<!-- 12&#45;&gt;1 -->
<g id="edge2" class="edge">
<title>12&#45;&gt;1</title>
<path fill="none" stroke="grey" stroke-width="2" d="M530.51,-379.53C524.89,-370.98 519.15,-362.24 513.41,-353.52"/>
<polygon fill="grey" stroke="grey" stroke-width="2" points="516.52,-351.88 508.1,-345.44 510.67,-355.72 516.52,-351.88"/>
</g>
<!-- 13 -->
<g id="node14" class="node">
<title>13</title>
<text text-anchor="start" x="519.62" y="-704.65" font-family="sans" font-weight="bold" font-size="18.00">add_header_iscan</text>
<text text-anchor="start" x="514" y="-675.95" font-family="sans" font-size="10.00"> </text>
<text text-anchor="start" x="516.25" y="-675.95" font-family="sans" font-weight="bold" font-size="14.00">↪ input</text>
<text text-anchor="start" x="569.5" y="-675.95" font-family="sans" font-size="10.00"> </text>
<text text-anchor="start" x="514" y="-652.25" font-family="monospace" font-size="10.00">tests/results/.iscan_raw.tsv</text>
<text text-anchor="start" x="613.75" y="-628.2" font-family="sans" font-size="10.00"> </text>
<text text-anchor="start" x="616" y="-628.2" font-family="sans" font-weight="bold" font-size="14.00">output →</text>
<text text-anchor="start" x="679.75" y="-628.2" font-family="sans" font-size="10.00"> </text>
<text text-anchor="start" x="514" y="-604.5" font-family="monospace" font-size="10.00">tests/results/iscan.tsv</text>
<polygon fill="#d95757" stroke="#d95757" points="508,-692.25 508,-692.25 689,-692.25 689,-692.25 508,-692.25"/>
<polygon fill="#d95757" stroke="#d95757" points="508,-644.5 508,-644.5 689,-644.5 689,-644.5 508,-644.5"/>
<polygon fill="none" stroke="#d95757" stroke-width="2" points="508,-593.75 508,-726.75 688,-726.75 688,-593.75 508,-593.75"/>
</g>
<!-- 13&#45;&gt;12 -->
<g id="edge14" class="edge">
<title>13&#45;&gt;12</title>
<path fill="none" stroke="grey" stroke-width="2" d="M594.52,-592.98C594.11,-585.33 593.7,-577.4 593.28,-569.43"/>
<polygon fill="grey" stroke="grey" stroke-width="2" points="596.78,-569.28 592.76,-559.48 589.79,-569.65 596.78,-569.28"/>
</g>
<!-- 14 -->
<g id="node15" class="node">
<title>14</title>
<text text-anchor="start" x="552" y="-875.65" font-family="sans" font-weight="bold" font-size="18.00">interproscan</text>
<text text-anchor="start" x="477" y="-846.95" font-family="sans" font-size="10.00"> </text>
<text text-anchor="start" x="479.25" y="-846.95" font-family="sans" font-weight="bold" font-size="14.00">↪ input</text>
<text text-anchor="start" x="532.5" y="-846.95" font-family="sans" font-size="10.00"> </text>
<text text-anchor="start" x="477" y="-823.25" font-family="monospace" font-size="10.00">tests/results/.pieces_faa/split_faa.sentinel</text>
<text text-anchor="start" x="672.75" y="-799.2" font-family="sans" font-size="10.00"> </text>
<text text-anchor="start" x="675" y="-799.2" font-family="sans" font-weight="bold" font-size="14.00">output →</text>
<text text-anchor="start" x="738.75" y="-799.2" font-family="sans" font-size="10.00"> </text>
<text text-anchor="start" x="477" y="-775.5" font-family="monospace" font-size="10.00">tests/results/.iscan_raw.tsv</text>
<polygon fill="#57d9c2" stroke="#57d9c2" points="471,-863.25 471,-863.25 748,-863.25 748,-863.25 471,-863.25"/>
<polygon fill="#57d9c2" stroke="#57d9c2" points="471,-815.5 471,-815.5 748,-815.5 748,-815.5 471,-815.5"/>
<polygon fill="none" stroke="#57d9c2" stroke-width="2" points="471,-764.75 471,-897.75 747,-897.75 747,-764.75 471,-764.75"/>
</g>
<!-- 14&#45;&gt;13 -->
<g id="edge15" class="edge">
<title>14&#45;&gt;13</title>
<path fill="none" stroke="grey" stroke-width="2" d="M604.68,-763.94C604.18,-756.21 603.66,-748.26 603.15,-740.37"/>
<polygon fill="grey" stroke="grey" stroke-width="2" points="606.66,-740.42 602.52,-730.67 599.68,-740.87 606.66,-740.42"/>
</g>
<!-- 15 -->
<g id="node16" class="node">
<title>15</title>
<text text-anchor="start" x="572.25" y="-1046.65" font-family="sans" font-weight="bold" font-size="18.00">split_faa</text>
<text text-anchor="start" x="477" y="-1017.95" font-family="sans" font-size="10.00"> </text>
<text text-anchor="start" x="479.25" y="-1017.95" font-family="sans" font-weight="bold" font-size="14.00">↪ input</text>
<text text-anchor="start" x="532.5" y="-1017.95" font-family="sans" font-size="10.00"> </text>
<text text-anchor="start" x="477" y="-994.25" font-family="monospace" font-size="10.00">tests/results/all.faa</text>
<text text-anchor="start" x="672.75" y="-970.2" font-family="sans" font-size="10.00"> </text>
<text text-anchor="start" x="675" y="-970.2" font-family="sans" font-weight="bold" font-size="14.00">output →</text>
<text text-anchor="start" x="738.75" y="-970.2" font-family="sans" font-size="10.00"> </text>
<text text-anchor="start" x="477" y="-946.5" font-family="monospace" font-size="10.00">tests/results/.pieces_faa/split_faa.sentinel</text>
<polygon fill="#57b2d9" stroke="#57b2d9" points="471,-1034.25 471,-1034.25 748,-1034.25 748,-1034.25 471,-1034.25"/>
<polygon fill="#57b2d9" stroke="#57b2d9" points="471,-986.5 471,-986.5 748,-986.5 748,-986.5 471,-986.5"/>
<polygon fill="none" stroke="#57b2d9" stroke-width="2" points="471,-935.75 471,-1068.75 747,-1068.75 747,-935.75 471,-935.75"/>
</g>
<!-- 15&#45;&gt;14 -->
<g id="edge16" class="edge">
<title>15&#45;&gt;14</title>
<path fill="none" stroke="grey" stroke-width="2" d="M609,-934.94C609,-927.3 609,-919.45 609,-911.66"/>
<polygon fill="grey" stroke="grey" stroke-width="2" points="612.5,-911.67 609,-901.67 605.5,-911.67 612.5,-911.67"/>
</g>
<!-- 16&#45;&gt;15 -->
<g id="edge17" class="edge">
<title>16&#45;&gt;15</title>
<path fill="none" stroke="grey" stroke-width="2" d="M609,-1105.94C609,-1098.3 609,-1090.45 609,-1082.66"/>
<polygon fill="grey" stroke="grey" stroke-width="2" points="612.5,-1082.67 609,-1072.67 605.5,-1082.67 612.5,-1082.67"/>
</g>
</g>
</svg>
